<?xml version="1.0" standalone="no"?>
<!DOCTYPE svg PUBLIC "-//W3C//DTD SVG 20010904//EN"
 "http://www.w3.org/TR/2001/REC-SVG-20010904/DTD/svg10.dtd">
<svg version="1.0" xmlns="http://www.w3.org/2000/svg"
 width="614.000000pt" height="614.000000pt" viewBox="0 0 614.000000 614.000000"
 preserveAspectRatio="xMidYMid meet">
<metadata>
Created by potrace 1.14, written by Peter Selinger 2001-2017
</metadata>
<g transform="translate(0.000000,614.000000) scale(0.100000,-0.100000)"
fill="#000000" stroke="none">
<path d="M1841 3599 c-817 -649 -1487 -1182 -1489 -1184 -3 -3 475 -5 1061 -5
l1067 0 0 215 0 215 -426 2 -425 3 597 510 c329 281 601 512 606 513 4 2 8
-91 8 -207 l0 -210 243 -176 242 -176 3 421 c1 231 1 609 0 839 l-3 419 -1484
-1179z"/>
<path d="M3690 3530 l0 -210 387 -2 387 -3 -565 -517 -564 -518 -3 198 -3 197
-244 177 -245 177 0 -831 c0 -663 3 -828 13 -821 47 37 2915 2339 2927 2350
12 11 -155 13 -1038 13 l-1052 0 0 -210z"/>
</g>
</svg>
