<?xml version="1.0" standalone="no"?>
<!DOCTYPE svg PUBLIC "-//W3C//DTD SVG 20010904//EN"
 "http://www.w3.org/TR/2001/REC-SVG-20010904/DTD/svg10.dtd">
<svg version="1.0" xmlns="http://www.w3.org/2000/svg"
 width="1292.000000pt" height="1292.000000pt" viewBox="0 0 1292.000000 1292.000000"
 preserveAspectRatio="xMidYMid meet">
<metadata>
Created by potrace 1.14, written by Peter Selinger 2001-2017
</metadata>
<g transform="translate(0.000000,1292.000000) scale(0.100000,-0.100000)"
fill="#000000" stroke="none">
<path d="M6820 9351 c-95 -76 -2362 -1877 -2845 -2261 -170 -135 -463 -368
-650 -516 -187 -149 -617 -490 -955 -758 -338 -269 -619 -492 -625 -497 -5 -5
777 -9 1848 -9 l1857 0 0 370 0 370 -746 2 -746 3 154 131 c84 72 558 476
1053 898 l900 768 5 -370 5 -371 390 -283 c215 -156 405 -294 423 -306 l32
-23 0 1460 c0 804 -3 1461 -7 1461 -5 -1 -46 -31 -93 -69z"/>
<path d="M7550 7250 l0 -370 666 -2 665 -3 -971 -890 c-534 -489 -975 -891
-980 -893 -6 -2 -10 125 -10 336 l0 340 -422 307 -423 306 -2 -583 c-2 -321 1
-967 5 -1437 l7 -853 415 333 c1922 1544 3694 2968 4149 3333 300 241 548 440
550 442 2 2 -818 4 -1822 4 l-1827 0 0 -370z"/>
</g>
</svg>
