<svg width="323" height="212" viewBox="0 0 323 212" fill="none" xmlns="http://www.w3.org/2000/svg">
<path d="M171.553 35.0859L171.262 35.2255L171.553 35.0859Z" fill="#FF176B"/>
<path d="M168.123 28.2933L167.835 28.4316L174.812 41.8159L175.101 41.6775L168.123 28.2933Z" fill="white"/>
<path d="M323 62.0239L290.169 88.4515L286.581 91.3346L164.698 189.234L161.911 191.469L136.307 212V150.834C136.255 150.435 136.224 150.066 136.213 149.717H0L33.3931 123.219L37.0121 120.346L160.247 22.4371L163.024 20.2423L188.565 0V60.9064C188.606 61.3055 188.648 61.6747 188.658 62.0239H323Z" fill="white"/>
<path d="M173.101 63.389V105.141L170.387 103.165L152.437 90.146L151.761 89.6572V71.0609L98.8483 116.224H136.183V134.741H43.3457L46.9751 131.868L170.199 33.9684L172.976 31.7637V62.1619C173.122 62.6009 173.122 63.0798 173.122 63.379L173.101 63.389Z" fill="black"/>
<path d="M280.133 76.9775L276.555 79.8506L154.683 177.74L151.896 179.975V149.556C151.75 149.107 151.75 148.629 151.75 148.329V107.885L154.464 109.85L172.414 122.869L173.09 123.358V140.478L222.166 95.4937H188.679V76.9775H280.122H280.133Z" fill="black"/>
</svg>
